# Blender v2.90.0 OBJ File: 'waterBottle.blend'
# www.blender.org
mtllib waterBottle.mtl
o Sphere
v -0.022964 0.689844 -0.097206
v -0.022964 0.616744 -0.170306
v -0.022964 0.516888 -0.197062
v 0.023442 0.689844 -0.085768
v 0.057413 0.616744 -0.150495
v 0.069847 0.516888 -0.174186
v 0.059216 0.689844 -0.054075
v 0.119376 0.616744 -0.095600
v 0.141396 0.516888 -0.110799
v 0.076164 0.689844 -0.009386
v 0.148731 0.616744 -0.018198
v 0.175292 0.516888 -0.021423
v 0.070403 0.689844 0.038059
v 0.138753 0.616744 0.063981
v 0.163770 0.516888 0.073469
v 0.043253 0.689844 0.077393
v 0.091727 0.616744 0.132109
v 0.109470 0.516888 0.152137
v 0.000934 0.689844 0.099604
v 0.018427 0.616744 0.170580
v 0.024831 0.516888 0.196559
v -0.046861 0.689844 0.099604
v -0.064355 0.616744 0.170580
v -0.070758 0.516888 0.196559
v -0.089180 0.689844 0.077393
v -0.137654 0.616744 0.132109
v -0.155397 0.516888 0.152137
v -0.116330 0.689844 0.038059
v -0.184680 0.616744 0.063981
v -0.209697 0.516888 0.073469
v -0.122091 0.689844 -0.009386
v -0.194658 0.616744 -0.018198
v -0.221219 0.516888 -0.021423
v -0.105143 0.689844 -0.054075
v -0.165303 0.616744 -0.095600
v -0.187323 0.516888 -0.110799
v -0.069369 0.689844 -0.085768
v -0.103340 0.616744 -0.150495
v -0.115774 0.516888 -0.174186
v -0.022964 0.792245 -0.097206
v 0.023442 0.792245 -0.085768
v 0.059216 0.792245 -0.054075
v 0.076164 0.792245 -0.009386
v 0.070403 0.792245 0.038059
v 0.043253 0.792245 0.077393
v 0.000934 0.792245 0.099604
v -0.046861 0.792245 0.099604
v -0.089180 0.792245 0.077393
v -0.116330 0.792245 0.038059
v -0.122091 0.792245 -0.009386
v -0.105143 0.792245 -0.054075
v -0.069369 0.792245 -0.085768
v -0.022964 0.159861 -0.197342
v 0.069977 0.159861 -0.174434
v 0.141627 0.159861 -0.110958
v 0.175570 0.159861 -0.021456
v 0.164032 0.159861 0.073568
v 0.109656 0.159861 0.152346
v 0.024898 0.159861 0.196830
v -0.070825 0.159861 0.196830
v -0.155583 0.159861 0.152346
v -0.155583 0.517741 0.152346
v -0.209959 0.159861 0.073568
v -0.209959 0.517741 0.073568
v -0.221497 0.159861 -0.021456
v -0.187553 0.159861 -0.110958
v -0.115904 0.159861 -0.174434
v -0.022964 0.517741 -0.197342
v 0.069977 0.517741 -0.174434
v 0.141627 0.517741 -0.110958
v 0.175570 0.517741 -0.021456
v 0.164032 0.517741 0.073568
v 0.109656 0.517741 0.152346
v 0.024898 0.517741 0.196830
v -0.070825 0.517741 0.196830
v -0.221497 0.517741 -0.021456
v -0.187553 0.517741 -0.110958
v -0.115904 0.517741 -0.174434
v -0.022964 0.165056 0.002650
v -0.065088 0.060422 0.170393
v -0.071606 0.160276 0.196348
v 0.017693 0.060423 0.170755
v 0.023981 0.160277 0.196766
v 0.091161 0.060425 0.132606
v 0.108814 0.160280 0.152715
v 0.138484 0.060429 0.064684
v 0.163459 0.160284 0.074286
v 0.148822 0.060432 -0.017450
v 0.175396 0.160289 -0.020554
v 0.119806 0.060435 -0.094980
v 0.141891 0.160292 -0.110079
v 0.058084 0.060437 -0.150146
v 0.070621 0.160294 -0.173778
v -0.022205 0.060437 -0.170308
v -0.022089 0.160294 -0.197060
v -0.102668 0.060435 -0.150849
v -0.114999 0.160292 -0.174591
v -0.164871 0.060432 -0.096227
v -0.186825 0.160289 -0.111518
v -0.194564 0.060429 -0.018953
v -0.221112 0.160284 -0.022290
v -0.184946 0.060425 0.063268
v -0.210006 0.160280 0.072651
v -0.138219 0.060423 0.131601
v -0.156050 0.160277 0.151555
v -0.060571 0.031524 0.152405
v 0.013334 0.031525 0.152729
v 0.078923 0.031527 0.118670
v 0.121172 0.031530 0.058032
v 0.130401 0.031533 -0.015295
v 0.104497 0.031536 -0.084512
v 0.049393 0.031538 -0.133762
v -0.022286 0.031538 -0.151763
v -0.094121 0.031536 -0.134390
v -0.149654 0.031533 -0.085625
v -0.176163 0.031530 -0.016637
v -0.167576 0.031527 0.056767
v -0.125860 0.031525 0.117774
v 0.017693 0.031524 0.170755
v -0.065088 0.031523 0.170393
v 0.091161 0.031527 0.132606
v 0.138484 0.031530 0.064684
v 0.148822 0.031534 -0.017450
v 0.119806 0.031537 -0.094980
v 0.058084 0.031539 -0.150146
v -0.022205 0.031539 -0.170308
v -0.102668 0.031537 -0.150849
v -0.164871 0.031534 -0.096227
v -0.194564 0.031530 -0.018953
v -0.184946 0.031527 0.063268
v -0.138219 0.031524 0.131601
v -0.060571 0.005934 0.152404
v 0.013334 0.005935 0.152728
v 0.078923 0.005937 0.118669
v 0.121172 0.005940 0.058030
v 0.130402 0.005944 -0.015296
v 0.104497 0.005946 -0.084513
v 0.049394 0.005948 -0.133763
v -0.022286 0.005948 -0.151764
v -0.094121 0.005946 -0.134391
v -0.149654 0.005944 -0.085626
v -0.176163 0.005940 -0.016638
v -0.167576 0.005937 0.056766
v -0.125860 0.005935 0.117772
vt 0.376314 0.220561
vt 0.451556 0.296927
vt 0.359810 0.279833
vt 0.284498 0.264402
vt 0.302347 0.193673
vt 0.277088 0.334881
vt 0.443440 0.344148
vt 0.351887 0.339568
vt 0.279275 0.403731
vt 0.441425 0.391132
vt 0.352082 0.398438
vt 0.359876 0.455319
vt 0.290279 0.469832
vt 0.454731 0.480669
vt 0.374708 0.509241
vt 0.309372 0.532233
vt 0.396003 0.559336
vt 0.335861 0.590108
vt 0.469207 0.521643
vt 0.423205 0.604779
vt 0.369122 0.642727
vt 0.488127 0.559149
vt 0.455839 0.644725
vt 0.408664 0.689429
vt 0.510733 0.592497
vt 0.493672 0.678262
vt 0.454197 0.729569
vt 0.536089 0.620905
vt 0.537195 0.704796
vt 0.505553 0.762558
vt 0.484170 0.059658
vt 0.372422 0.059266
vt 0.423847 0.000191
vt 0.537754 0.133103
vt 0.436840 0.109536
vt 0.331490 0.124505
vt 0.510265 0.166621
vt 0.401807 0.163289
vt 0.485631 0.206572
vt 0.612390 0.598357
vt 0.562793 0.643170
vt 0.445308 0.436917
vt 0.530627 0.392369
vt 0.531739 0.427322
vt 0.558874 0.522704
vt 0.533921 0.356635
vt 0.546217 0.492898
vt 0.592615 0.575280
vt 0.537040 0.460982
vt 0.570282 0.249943
vt 0.574531 0.550172
vt 0.590072 0.215755
vt 0.553935 0.284959
vt 0.465746 0.250603
vt 0.541713 0.320659
vt 0.747675 0.869592
vt 0.764836 0.939218
vt 0.621608 0.956609
vt 0.276707 0.222071
vt 0.000191 0.296031
vt 0.000191 0.222071
vt 0.276707 0.296031
vt 0.000191 0.369991
vt 0.276707 0.369990
vt 0.000191 0.443951
vt 0.276707 0.443950
vt 0.000191 0.517910
vt 0.276707 0.591870
vt 0.000191 0.591870
vt 0.000191 0.665830
vt 0.276707 0.665830
vt 0.000191 0.739790
vt 0.276707 0.813750
vt 0.000191 0.813750
vt 0.000191 0.887710
vt 0.276707 0.961670
vt 0.000191 0.961670
vt 0.000191 0.000191
vt 0.276707 0.074151
vt 0.000191 0.074151
vt 0.000191 0.148111
vt 0.276707 0.148111
vt 0.749973 0.201022
vt 0.647034 0.230429
vt 0.680102 0.161454
vt 0.722798 0.259636
vt 0.624845 0.303129
vt 0.693779 0.384234
vt 0.613428 0.377819
vt 0.612771 0.452935
vt 0.692790 0.447902
vt 0.622699 0.526958
vt 0.700847 0.510748
vt 0.642795 0.598469
vt 0.717812 0.571511
vt 0.672363 0.666378
vt 0.743540 0.628744
vt 0.710914 0.730646
vt 0.819132 0.733267
vt 0.759234 0.790605
vt 0.869499 0.778486
vt 0.816376 0.843782
vt 0.874054 0.063002
vt 0.772986 0.045981
vt 0.828335 0.000191
vt 0.785803 0.148115
vt 0.723110 0.099496
vt 0.725649 0.325890
vt 0.703849 0.321040
vt 0.762183 0.618821
vt 0.841809 0.117215
vt 0.803054 0.161677
vt 0.835993 0.717116
vt 0.886075 0.759600
vt 0.722349 0.506173
vt 0.770302 0.212436
vt 0.715932 0.385939
vt 0.776899 0.682918
vt 0.795137 0.669774
vt 0.743851 0.267548
vt 0.738276 0.563918
vt 0.827395 0.102174
vt 0.887444 0.079132
vt 0.714842 0.446446
vt 0.782303 0.219445
vt 0.774928 0.280236
vt 0.756800 0.272933
vt 0.729743 0.387474
vt 0.739172 0.329383
vt 0.728655 0.446002
vt 0.735881 0.503767
vt 0.751256 0.559594
vt 0.806547 0.661492
vt 0.774518 0.612485
vt 0.846581 0.706650
vt 0.893081 0.745186
vt 0.850839 0.126555
vt 0.893043 0.090623
vt 0.813850 0.170114
vt 0.382012 0.762940
vt 0.485694 0.802261
vt 0.485694 0.960488
vt 0.822187 0.649752
vt 0.860732 0.692450
vt 0.758062 0.334065
vt 0.905358 0.730429
vt 0.749003 0.389427
vt 0.864441 0.140358
vt 0.747887 0.445202
vt 0.829046 0.181699
vt 0.754691 0.500239
vt 0.799170 0.228988
vt 0.769260 0.553381
vt 0.791473 0.603487
vt 0.612390 0.180920
vt 0.680625 0.997346
vt 0.646096 0.984251
vt 0.612771 0.920754
vt 0.621608 0.884899
vt 0.646096 0.857258
vt 0.680625 0.844163
vt 0.717284 0.848614
vt 0.764837 0.902290
vt 0.747675 0.971917
vt 0.717284 0.992894
vt 0.276707 0.517910
vt 0.276707 0.739790
vt 0.276707 0.887710
vt 0.276707 0.000191
vt 0.512231 0.852823
vt 0.512231 0.909926
vt 0.438699 0.992926
vt 0.382013 0.999809
vt 0.328620 0.979560
vt 0.290754 0.936818
vt 0.277088 0.881374
vt 0.290754 0.825931
vt 0.328620 0.783189
vt 0.438699 0.769823
vt 0.905358 0.104790
vn 0.1717 0.6966 -0.6966
vn 0.2316 0.2518 -0.9397
vn 0.6418 0.2518 -0.7244
vn 0.4758 0.6966 -0.5370
vn 0.9049 0.2518 -0.3432
vn 0.6708 0.6966 -0.2544
vn 0.9607 0.2518 0.1167
vn 0.7122 0.6966 0.0865
vn 0.5905 0.6966 0.4076
vn 0.7965 0.2518 0.5498
vn 0.3334 0.6966 0.6353
vn 0.4498 0.2518 0.8569
vn 0.0000 0.6966 0.7175
vn 0.0000 0.2518 0.9678
vn -0.3334 0.6966 0.6353
vn -0.4498 0.2518 0.8569
vn -0.5905 0.6966 0.4076
vn -0.7965 0.2518 0.5498
vn -0.7122 0.6966 0.0865
vn -0.9607 0.2518 0.1167
vn -0.9049 0.2518 -0.3432
vn -0.6708 0.6966 -0.2544
vn -0.6418 0.2518 -0.7244
vn -0.4758 0.6966 -0.5370
vn -0.2316 0.2518 -0.9397
vn -0.1717 0.6966 -0.6966
vn -0.9927 -0.0000 0.1205
vn 0.9927 0.0000 0.1205
vn 0.0000 0.0000 1.0000
vn 0.9350 -0.0000 -0.3546
vn 0.4647 0.0000 0.8855
vn -0.8230 -0.0000 0.5681
vn 0.8230 0.0000 0.5681
vn -0.6631 0.0000 -0.7485
vn 0.6631 -0.0000 -0.7485
vn -0.4647 0.0000 0.8855
vn -0.9350 0.0000 -0.3546
vn -0.2393 0.0000 -0.9709
vn 0.2393 0.0000 -0.9709
vn 0.0000 1.0000 -0.0000
vn -0.0042 -0.2518 0.9678
vn 0.4460 -0.2518 0.8589
vn 0.7941 -0.2518 0.5532
vn 0.9602 -0.2518 0.1208
vn 0.9064 -0.2518 -0.3392
vn 0.6449 -0.2517 -0.7216
vn 0.2357 -0.2517 -0.9387
vn -0.2275 -0.2517 -0.9407
vn -0.6386 -0.2518 -0.7272
vn -0.9034 -0.2518 -0.3472
vn -0.9612 -0.2518 0.1124
vn -0.7989 -0.2518 0.5463
vn -0.4535 -0.2518 0.8549
vn 0.4608 0.0000 0.8875
vn 0.2436 0.0000 -0.9699
vn -0.8255 0.0000 0.5645
vn -0.9335 0.0000 -0.3587
vn 0.9366 0.0000 -0.3505
vn -0.4686 0.0000 0.8834
vn 0.8205 0.0000 0.5717
vn -0.2351 -0.0000 -0.9720
vn -0.0044 0.0000 1.0000
vn 0.6664 0.0000 -0.7456
vn -0.9932 0.0000 0.1162
vn 0.9922 0.0000 0.1249
vn -0.6598 0.0000 -0.7514
vn 0.0000 -1.0000 -0.0000
usemtl Material.001
s off
f 2/1/1 4/2/1 5/3/1
f 2/1/2 6/4/2 3/5/2
f 5/3/3 9/6/3 6/4/3
f 5/3/4 7/7/4 8/8/4
f 8/8/5 12/9/5 9/6/5
f 8/8/6 10/10/6 11/11/6
f 12/9/7 14/12/7 15/13/7
f 10/10/8 14/12/8 11/11/8
f 14/12/9 16/14/9 17/15/9
f 14/12/10 18/16/10 15/13/10
f 16/14/11 20/17/11 17/15/11
f 18/16/12 20/17/12 21/18/12
f 19/19/13 23/20/13 20/17/13
f 21/18/14 23/20/14 24/21/14
f 22/22/15 26/23/15 23/20/15
f 23/20/16 27/24/16 24/21/16
f 25/25/17 29/26/17 26/23/17
f 27/24/18 29/26/18 30/27/18
f 28/28/19 32/29/19 29/26/19
f 29/26/20 33/30/20 30/27/20
f 32/31/21 36/32/21 33/33/21
f 31/34/22 35/35/22 32/31/22
f 35/35/23 39/36/23 36/32/23
f 34/37/24 38/38/24 35/35/24
f 39/36/25 2/1/25 3/5/25
f 37/39/26 2/1/26 38/38/26
f 28/28/27 50/40/27 31/41/27
f 13/42/28 43/43/28 44/44/28
f 19/19/29 47/45/29 22/22/29
f 10/10/30 42/46/30 43/43/30
f 16/14/31 46/47/31 19/19/31
f 25/25/32 49/48/32 28/28/32
f 13/42/33 45/49/33 16/14/33
f 34/37/34 52/50/34 37/39/34
f 4/2/35 42/46/35 7/7/35
f 25/25/36 47/45/36 48/51/36
f 31/34/37 51/52/37 34/37/37
f 37/39/38 40/53/38 1/54/38
f 1/54/39 41/55/39 4/2/39
f 46/56/40 44/57/40 52/58/40
f 68/59/39 54/60/39 53/61/39
f 69/62/35 55/63/35 54/60/35
f 70/64/30 56/65/30 55/63/30
f 71/66/28 57/67/28 56/65/28
f 57/67/33 73/68/33 58/69/33
f 73/68/31 59/70/31 58/69/31
f 74/71/29 60/72/29 59/70/29
f 60/72/36 62/73/36 61/74/36
f 62/73/32 63/75/32 61/74/32
f 63/75/27 76/76/27 65/77/27
f 65/78/37 77/79/37 66/80/37
f 77/79/34 67/81/34 66/80/34
f 78/82/38 53/61/38 67/81/38
f 80/83/41 83/84/41 81/85/41
f 82/86/42 85/87/42 83/84/42
f 85/87/43 86/88/43 87/89/43
f 86/88/44 89/90/44 87/89/44
f 88/91/45 91/92/45 89/90/45
f 90/93/46 93/94/46 91/92/46
f 92/95/47 95/96/47 93/94/47
f 94/97/48 97/98/48 95/96/48
f 97/98/49 98/99/49 99/100/49
f 99/100/50 100/101/50 101/102/50
f 100/103/51 103/104/51 101/105/51
f 103/104/52 104/106/52 105/107/52
f 105/107/53 80/83/53 81/85/53
f 82/86/54 121/108/54 84/109/54
f 92/95/55 126/110/55 94/97/55
f 104/106/56 130/111/56 131/112/56
f 100/101/57 128/113/57 129/114/57
f 88/91/58 124/115/58 90/93/58
f 80/83/59 131/112/59 120/116/59
f 84/109/60 122/117/60 86/88/60
f 96/118/61 126/110/61 127/119/61
f 80/83/62 119/120/62 82/86/62
f 90/93/63 125/121/63 92/95/63
f 102/122/64 129/123/64 130/111/64
f 86/88/65 123/124/65 88/91/65
f 98/99/66 127/119/66 128/113/66
f 106/125/62 133/126/62 107/127/62
f 106/125/67 119/120/67 120/116/67
f 107/127/67 121/108/67 119/120/67
f 109/128/67 121/108/67 108/129/67
f 110/130/67 122/117/67 109/128/67
f 111/131/67 123/124/67 110/130/67
f 111/131/67 125/121/67 124/115/67
f 112/132/67 126/110/67 125/121/67
f 114/133/67 126/110/67 113/134/67
f 115/135/67 127/119/67 114/133/67
f 116/136/67 128/113/67 115/135/67
f 117/137/67 129/123/67 116/138/67
f 118/139/67 130/111/67 117/137/67
f 106/125/67 131/112/67 118/139/67
f 137/140/67 135/141/67 132/142/67
f 115/135/66 140/143/66 141/144/66
f 107/127/54 134/145/54 108/129/54
f 115/135/57 142/146/57 116/136/57
f 109/128/60 134/145/60 135/147/60
f 116/138/64 143/148/64 117/137/64
f 110/130/65 135/147/65 136/149/65
f 118/139/56 143/148/56 144/150/56
f 110/130/58 137/151/58 111/131/58
f 118/139/59 132/152/59 106/125/59
f 111/131/63 138/153/63 112/132/63
f 112/132/55 139/154/55 113/134/55
f 113/134/61 140/143/61 114/133/61
f 2/1/1 1/54/1 4/2/1
f 2/1/2 5/3/2 6/4/2
f 5/3/3 8/8/3 9/6/3
f 5/3/4 4/2/4 7/7/4
f 8/8/5 11/11/5 12/9/5
f 8/8/6 7/7/6 10/10/6
f 12/9/7 11/11/7 14/12/7
f 10/10/8 13/42/8 14/12/8
f 14/12/9 13/42/9 16/14/9
f 14/12/10 17/15/10 18/16/10
f 16/14/11 19/19/11 20/17/11
f 18/16/12 17/15/12 20/17/12
f 19/19/13 22/22/13 23/20/13
f 21/18/14 20/17/14 23/20/14
f 22/22/15 25/25/15 26/23/15
f 23/20/16 26/23/16 27/24/16
f 25/25/17 28/28/17 29/26/17
f 27/24/18 26/23/18 29/26/18
f 28/28/19 31/41/19 32/29/19
f 29/26/20 32/29/20 33/30/20
f 32/31/21 35/35/21 36/32/21
f 31/34/22 34/37/22 35/35/22
f 35/35/23 38/38/23 39/36/23
f 34/37/24 37/39/24 38/38/24
f 39/36/25 38/38/25 2/1/25
f 37/39/26 1/54/26 2/1/26
f 28/28/27 49/48/27 50/40/27
f 13/42/28 10/10/28 43/43/28
f 19/19/29 46/47/29 47/45/29
f 10/10/30 7/7/30 42/46/30
f 16/14/31 45/49/31 46/47/31
f 25/25/32 48/51/32 49/48/32
f 13/42/33 44/44/33 45/49/33
f 34/37/34 51/52/34 52/50/34
f 4/2/35 41/55/35 42/46/35
f 25/25/36 22/22/36 47/45/36
f 31/34/37 50/155/37 51/52/37
f 37/39/38 52/50/38 40/53/38
f 1/54/39 40/53/39 41/55/39
f 41/156/40 40/157/40 52/58/40
f 52/58/40 51/158/40 50/159/40
f 50/159/40 49/160/40 48/161/40
f 48/161/40 47/162/40 46/56/40
f 46/56/40 45/163/40 44/57/40
f 44/57/40 43/164/40 42/165/40
f 42/165/40 41/156/40 44/57/40
f 41/156/40 52/58/40 44/57/40
f 52/58/40 50/159/40 48/161/40
f 48/161/40 46/56/40 52/58/40
f 68/59/39 69/62/39 54/60/39
f 69/62/35 70/64/35 55/63/35
f 70/64/30 71/66/30 56/65/30
f 71/66/28 72/166/28 57/67/28
f 57/67/33 72/166/33 73/68/33
f 73/68/31 74/71/31 59/70/31
f 74/71/29 75/167/29 60/72/29
f 60/72/36 75/167/36 62/73/36
f 62/73/32 64/168/32 63/75/32
f 63/75/27 64/168/27 76/76/27
f 65/78/37 76/169/37 77/79/37
f 77/79/34 78/82/34 67/81/34
f 78/82/38 68/59/38 53/61/38
f 80/83/41 82/86/41 83/84/41
f 82/86/42 84/109/42 85/87/42
f 85/87/43 84/109/43 86/88/43
f 86/88/44 88/91/44 89/90/44
f 88/91/45 90/93/45 91/92/45
f 90/93/46 92/95/46 93/94/46
f 92/95/47 94/97/47 95/96/47
f 94/97/48 96/118/48 97/98/48
f 97/98/49 96/118/49 98/99/49
f 99/100/50 98/99/50 100/101/50
f 100/103/51 102/122/51 103/104/51
f 103/104/52 102/122/52 104/106/52
f 105/107/53 104/106/53 80/83/53
f 82/86/54 119/120/54 121/108/54
f 92/95/55 125/121/55 126/110/55
f 104/106/56 102/122/56 130/111/56
f 100/101/57 98/99/57 128/113/57
f 88/91/58 123/124/58 124/115/58
f 80/83/59 104/106/59 131/112/59
f 84/109/60 121/108/60 122/117/60
f 96/118/61 94/97/61 126/110/61
f 80/83/62 120/116/62 119/120/62
f 90/93/63 124/115/63 125/121/63
f 102/122/64 100/103/64 129/123/64
f 86/88/65 122/117/65 123/124/65
f 98/99/66 96/118/66 127/119/66
f 106/125/62 132/152/62 133/126/62
f 106/125/67 107/127/67 119/120/67
f 107/127/67 108/129/67 121/108/67
f 109/128/67 122/117/67 121/108/67
f 110/130/67 123/124/67 122/117/67
f 111/131/67 124/115/67 123/124/67
f 111/131/67 112/132/67 125/121/67
f 112/132/67 113/134/67 126/110/67
f 114/133/67 127/119/67 126/110/67
f 115/135/67 128/113/67 127/119/67
f 116/136/67 129/114/67 128/113/67
f 117/137/67 130/111/67 129/123/67
f 118/139/67 131/112/67 130/111/67
f 106/125/67 120/116/67 131/112/67
f 134/170/67 133/171/67 132/142/67
f 132/142/67 144/172/67 143/173/67
f 143/173/67 142/174/67 141/175/67
f 141/175/67 140/176/67 139/177/67
f 139/177/67 138/178/67 137/140/67
f 137/140/67 136/179/67 135/141/67
f 135/141/67 134/170/67 132/142/67
f 132/142/67 143/173/67 137/140/67
f 143/173/67 141/175/67 137/140/67
f 141/175/67 139/177/67 137/140/67
f 115/135/66 114/133/66 140/143/66
f 107/127/54 133/126/54 134/145/54
f 115/135/57 141/144/57 142/146/57
f 109/128/60 108/129/60 134/145/60
f 116/138/64 142/180/64 143/148/64
f 110/130/65 109/128/65 135/147/65
f 118/139/56 117/137/56 143/148/56
f 110/130/58 136/149/58 137/151/58
f 118/139/59 144/150/59 132/152/59
f 111/131/63 137/151/63 138/153/63
f 112/132/55 138/153/55 139/154/55
f 113/134/61 139/154/61 140/143/61
